<svg id="Layer_1" data-name="Layer 1" xmlns="http://www.w3.org/2000/svg" xmlns:xlink="http://www.w3.org/1999/xlink" viewBox="0 0 597.5 630"><defs><style>.cls-1,.cls-10,.cls-2,.cls-3,.cls-4,.cls-5,.cls-6,.cls-7,.cls-8,.cls-9{fill:none;stroke-linecap:round;stroke-linejoin:round;stroke-width:20px;}.cls-1,.cls-2,.cls-3,.cls-4,.cls-5{opacity:0.1;}.cls-1{stroke:url(#linear-gradient);}.cls-2{stroke:url(#linear-gradient-2);}.cls-3{stroke:url(#linear-gradient-3);}.cls-4{stroke:url(#linear-gradient-4);}.cls-5{stroke:url(#linear-gradient-5);}.cls-6{stroke:url(#linear-gradient-6);}.cls-7{stroke:url(#linear-gradient-7);}.cls-8{stroke:url(#linear-gradient-8);}.cls-9{stroke:url(#linear-gradient-9);}.cls-10{stroke:url(#linear-gradient-10);}</style><linearGradient id="linear-gradient" x1="317.38" y1="500" x2="685" y2="500" gradientUnits="userSpaceOnUse"><stop offset="0" stop-color="#7028e4"/><stop offset="0.13" stop-color="#7831e2"/><stop offset="0.36" stop-color="#8e4bdd"/><stop offset="0.64" stop-color="#b174d6"/><stop offset="0.97" stop-color="#e1adcb"/><stop offset="1" stop-color="#e5b2ca"/></linearGradient><linearGradient id="linear-gradient-2" x1="282.5" y1="512.52" x2="717.5" y2="512.52" gradientUnits="userSpaceOnUse"><stop offset="0" stop-color="#a1c4fd"/><stop offset="0.36" stop-color="#a9cdfc"/><stop offset="0.95" stop-color="#c0e7fb"/><stop offset="1" stop-color="#c2e9fb"/></linearGradient><linearGradient id="linear-gradient-3" x1="250" y1="562.74" x2="750" y2="562.74" gradientUnits="userSpaceOnUse"><stop offset="0" stop-color="#a18cd1"/><stop offset="0.18" stop-color="#aa92d4"/><stop offset="0.49" stop-color="#c4a1db"/><stop offset="0.88" stop-color="#edbae7"/><stop offset="1" stop-color="#fbc2eb"/></linearGradient><linearGradient id="linear-gradient-4" x1="217.5" y1="636.25" x2="782.5" y2="636.25" gradientUnits="userSpaceOnUse"><stop offset="0" stop-color="#667eea"/><stop offset="0.22" stop-color="#6877e1"/><stop offset="0.58" stop-color="#6e65c7"/><stop offset="1" stop-color="#764ba2"/></linearGradient><linearGradient id="linear-gradient-5" x1="185" y1="652.5" x2="765.49" y2="652.5" gradientUnits="userSpaceOnUse"><stop offset="0" stop-color="#6a11cb"/><stop offset="0.19" stop-color="#5929d7"/><stop offset="0.55" stop-color="#3d52eb"/><stop offset="0.83" stop-color="#2b6cf7"/><stop offset="1" stop-color="#2575fc"/></linearGradient><linearGradient id="linear-gradient-6" x1="185" y1="500" x2="756.48" y2="500" gradientUnits="userSpaceOnUse"><stop offset="0.5" stop-color="#6a11cb" stop-opacity="0.7"/><stop offset="0.53" stop-color="#6617ce" stop-opacity="0.66"/><stop offset="0.69" stop-color="#4a3fe2" stop-opacity="0.38"/><stop offset="0.83" stop-color="#365cf0" stop-opacity="0.17"/><stop offset="0.93" stop-color="#2a6ef9" stop-opacity="0.05"/><stop offset="1" stop-color="#2575fc" stop-opacity="0"/></linearGradient><linearGradient id="linear-gradient-7" x1="217.5" y1="500" x2="782.5" y2="500" gradientUnits="userSpaceOnUse"><stop offset="0" stop-color="#667eea"/><stop offset="0.09" stop-color="#677ce7" stop-opacity="0.96"/><stop offset="0.24" stop-color="#6876df" stop-opacity="0.85"/><stop offset="0.43" stop-color="#6b6dd2" stop-opacity="0.67"/><stop offset="0.66" stop-color="#6f61c1" stop-opacity="0.43"/><stop offset="0.91" stop-color="#7451aa" stop-opacity="0.12"/><stop offset="1" stop-color="#764ba2" stop-opacity="0"/></linearGradient><linearGradient id="linear-gradient-8" x1="250" y1="512.81" x2="750" y2="512.81" gradientUnits="userSpaceOnUse"><stop offset="0" stop-color="#a18cd1"/><stop offset="0.1" stop-color="#a58ed2" stop-opacity="0.95"/><stop offset="0.26" stop-color="#b095d5" stop-opacity="0.83"/><stop offset="0.47" stop-color="#c2a0db" stop-opacity="0.63"/><stop offset="0.72" stop-color="#dbafe2" stop-opacity="0.36"/><stop offset="0.99" stop-color="#fac1eb" stop-opacity="0.01"/><stop offset="1" stop-color="#fbc2eb" stop-opacity="0"/></linearGradient><linearGradient id="linear-gradient-9" x1="282.5" y1="553.1" x2="717.5" y2="553.1" gradientUnits="userSpaceOnUse"><stop offset="0" stop-color="#a1c4fd"/><stop offset="0.09" stop-color="#a2c5fd" stop-opacity="0.96"/><stop offset="0.23" stop-color="#a6c9fd" stop-opacity="0.86"/><stop offset="0.41" stop-color="#abcffc" stop-opacity="0.7"/><stop offset="0.62" stop-color="#b3d8fc" stop-opacity="0.47"/><stop offset="0.86" stop-color="#bce2fb" stop-opacity="0.18"/><stop offset="1" stop-color="#c2e9fb" stop-opacity="0"/></linearGradient><linearGradient id="linear-gradient-10" x1="315.91" y1="587.56" x2="685" y2="587.56" gradientUnits="userSpaceOnUse"><stop offset="0" stop-color="#7028e4"/><stop offset="0.09" stop-color="#752ee3" stop-opacity="0.96"/><stop offset="0.25" stop-color="#823de0" stop-opacity="0.85"/><stop offset="0.44" stop-color="#9756db" stop-opacity="0.66"/><stop offset="0.67" stop-color="#b579d5" stop-opacity="0.41"/><stop offset="0.93" stop-color="#daa5cc" stop-opacity="0.09"/><stop offset="1" stop-color="#e5b2ca" stop-opacity="0"/></linearGradient></defs><title>vue_ellipse_logo_v2</title><path id="_5" data-name="5" class="cls-1" d="M500,325A175,175,0,1,1,327.38,528.91" transform="translate(-185 -185)"/><path id="_4" data-name="4" class="cls-2" d="M598.91,317.54A207.46,207.46,0,0,1,707.5,500c0,114.6-92.9,207.5-207.5,207.5S292.5,614.6,292.5,500" transform="translate(-185 -185)"/><path id="_3" data-name="3" class="cls-3" d="M711,385.48A238.93,238.93,0,0,1,740,500c0,132.55-107.45,240-240,240S260,632.55,260,500" transform="translate(-185 -185)"/><path id="_2" data-name="2" class="cls-4" d="M772.5,500c0,150.5-122,272.5-272.5,272.5S227.5,650.5,227.5,500" transform="translate(-185 -185)"/><path id="_1" data-name="1" class="cls-5" d="M755.49,666.65C701,750,606.95,805,500,805c-168.45,0-305-136.55-305-305" transform="translate(-185 -185)"/><path id="_1-2" data-name="_1" class="cls-6" d="M746.48,679.68A304.58,304.58,0,0,1,500,805c-168.45,0-305-136.55-305-305S331.55,195,500,195a304,304,0,0,1,213.47,87.16" transform="translate(-185 -185)"/><path id="_2-2" data-name="_2" class="cls-7" d="M772.5,501C772,651,650.16,772.5,500,772.5c-150.5,0-272.5-122-272.5-272.5S349.5,227.5,500,227.5a275.7,275.7,0,0,1,27.86,1.41" transform="translate(-185 -185)"/><path id="_3-2" data-name="_3" class="cls-8" d="M740,500.5C739.73,632.82,632.38,740,500,740c-132.55,0-240-107.45-240-240A240,240,0,0,1,392,285.63" transform="translate(-185 -185)"/><path id="_4-2" data-name="_4" class="cls-9" d="M707.5,500.27c-.14,114.48-93,207.23-207.5,207.23S292.5,614.6,292.5,500a206.56,206.56,0,0,1,26.36-101.3" transform="translate(-185 -185)"/><path id="_5-2" data-name="_5" class="cls-10" d="M675,500.12A175,175,0,0,1,325.91,518" transform="translate(-185 -185)"/></svg>