<svg id="Layer_1" data-name="Layer 1" xmlns="http://www.w3.org/2000/svg" xmlns:xlink="http://www.w3.org/1999/xlink" viewBox="0 0 974.53 974.53"><defs><style>.cls-1{fill:#fff;}.cls-2{opacity:0.2;}.cls-3{fill:url(#linear-gradient);}.cls-4{opacity:0.3;}.cls-5{fill:url(#linear-gradient-2);}.cls-6{opacity:0.5;}.cls-7{fill:url(#linear-gradient-3);}.cls-8{opacity:0.31;}.cls-9{fill:url(#linear-gradient-4);}.cls-10{opacity:0.1;}.cls-11{fill:url(#linear-gradient-5);}.cls-12{fill:url(#linear-gradient-6);}.cls-13{fill:url(#linear-gradient-7);}.cls-14{fill:url(#linear-gradient-8);}.cls-15{fill:url(#linear-gradient-9);}.cls-16{fill:url(#linear-gradient-10);}.cls-17{fill:url(#linear-gradient-11);}.cls-18{fill:url(#linear-gradient-12);}</style><linearGradient id="linear-gradient" x1="48.22" y1="681.36" x2="952.26" y2="317.65" gradientTransform="translate(1121.76 836.4) rotate(163.46)" gradientUnits="userSpaceOnUse"><stop offset="0" stop-color="#667eea"/><stop offset="0.22" stop-color="#6877e1"/><stop offset="0.58" stop-color="#6e65c7"/><stop offset="0.99" stop-color="#764ba2"/></linearGradient><linearGradient id="linear-gradient-2" x1="47.8" y1="681.34" x2="951.84" y2="317.62" gradientTransform="translate(701.42 1177.3) rotate(-151.54)" xlink:href="#linear-gradient"/><linearGradient id="linear-gradient-3" x1="47.49" y1="681.62" x2="951.52" y2="317.9" gradientTransform="translate(163.15 1121.12) rotate(-106.54)" xlink:href="#linear-gradient"/><linearGradient id="linear-gradient-4" x1="47.46" y1="682.04" x2="951.5" y2="318.32" gradientTransform="translate(-177.75 700.79) rotate(-61.54)" xlink:href="#linear-gradient"/><linearGradient id="linear-gradient-5" x1="48.18" y1="681.34" x2="952.22" y2="317.63" gradientTransform="translate(1093.12 884.58) rotate(168)" xlink:href="#linear-gradient"/><linearGradient id="linear-gradient-6" x1="47.76" y1="681.35" x2="951.8" y2="317.64" gradientTransform="translate(647.1 1191.11) rotate(-147)" xlink:href="#linear-gradient"/><linearGradient id="linear-gradient-7" x1="47.47" y1="681.66" x2="951.51" y2="317.94" gradientTransform="translate(114.97 1092.48) rotate(-102)" xlink:href="#linear-gradient"/><linearGradient id="linear-gradient-8" x1="47.48" y1="682.08" x2="951.51" y2="318.36" gradientTransform="translate(-191.57 646.47) rotate(-57)" xlink:href="#linear-gradient"/><linearGradient id="linear-gradient-9" x1="48.15" y1="681.33" x2="952.19" y2="317.62" gradientTransform="translate(1071.71 915.69) rotate(171.06)" xlink:href="#linear-gradient"/><linearGradient id="linear-gradient-10" x1="47.73" y1="681.37" x2="951.77" y2="317.65" gradientTransform="matrix(-0.81, -0.59, 0.59, -0.81, 609.97, 1197.97)" xlink:href="#linear-gradient"/><linearGradient id="linear-gradient-11" x1="47.46" y1="681.69" x2="951.5" y2="317.97" gradientTransform="translate(83.86 1071.08) rotate(-98.94)" xlink:href="#linear-gradient"/><linearGradient id="linear-gradient-12" x1="47.49" y1="682.1" x2="951.53" y2="318.39" gradientTransform="matrix(0.59, -0.81, 0.81, 0.59, -198.43, 609.34)" xlink:href="#linear-gradient"/></defs><title>vue_ellipse_logo_v3</title><circle class="cls-1" cx="487.26" cy="487.26" r="485.89"/><g id="_2" data-name="2"><g id="Sloi_1"><g class="cls-2"><path class="cls-3" d="M118.47,803C67,738.24,94.63,638.36,83.35,562,71.7,483.22,17.55,395.19,46.72,321.09,75,249.27,173.27,221.66,238.06,170.2S352,29.27,428.34,18C507.12,6.35,580.61,79,654.71,108.2c71.82,28.28,175.36,24,226.83,88.77s23.84,164.67,35.12,241c11.64,78.78,65.8,166.81,36.62,240.91C925,750.73,826.73,778.34,761.94,829.8S648,970.73,571.66,982c-78.78,11.64-152.26-61-226.36-90.21C273.47,863.53,169.93,867.82,118.47,803Z" transform="translate(-12.74 -12.74)"/></g><g class="cls-4"><path class="cls-5" d="M15.94,444.49c9.43-82.2,99.58-133.3,145.6-195.27C209,185.28,233,84.75,306,53c70.78-30.79,159.79,19.17,242,28.6s180.21-19.1,242.18,26.92C854.1,156,854.67,259.32,886.44,332.35c30.79,70.78,107,141,97.62,223.16s-99.58,133.3-145.6,195.27C791,814.72,767,915.25,694,947c-70.78,30.79-159.79-19.17-242-28.6s-180.21,19.1-242.18-26.92C145.9,844,145.33,740.68,113.56,667.65,82.77,596.87,6.51,526.7,15.94,444.49Z" transform="translate(-12.74 -12.74)"/></g><g class="cls-6"><path class="cls-7" d="M197,118.47C261.76,67,361.64,94.63,438,83.35c78.78-11.64,166.81-65.8,240.91-36.62C750.73,75,778.34,173.27,829.8,238.06S970.73,352,982,428.34c11.64,78.78-61,152.26-90.21,226.36-28.28,71.82-24,175.36-88.77,226.83s-164.67,23.84-241,35.12c-78.78,11.64-166.81,65.8-240.91,36.62C249.27,925,221.66,826.73,170.2,761.94S29.27,648,18,571.66C6.35,492.88,79,419.39,108.2,345.29,136.47,273.47,132.18,169.93,197,118.47Z" transform="translate(-12.74 -12.74)"/></g><g class="cls-8"><path class="cls-9" d="M555.51,15.94c82.2,9.43,133.3,99.58,195.27,145.6C814.72,209,915.25,233,947,306c30.79,70.78-19.17,159.79-28.6,242s19.1,180.21-26.92,242.18C844,854.1,740.68,854.67,667.65,886.44c-70.78,30.79-141,107-223.16,97.62s-133.3-99.58-195.27-145.6C185.28,791,84.75,767,53,694c-30.79-70.78,19.17-159.79,28.6-242S62.48,271.81,108.5,209.84C156,145.9,259.32,145.33,332.35,113.56,403.13,82.77,473.3,6.51,555.51,15.94Z" transform="translate(-12.74 -12.74)"/></g></g><g id="Sloi_1-2" data-name="Sloi_1"><g class="cls-10"><path class="cls-11" d="M95.67,771.86c-46.17-68.66-10.72-166-15.92-243.06-5.37-79.46-52.38-171.5-17.43-243.05,33.88-69.36,134-89.09,202.68-135.26S389.73,19,466.74,13.83c79.46-5.37,147,72.9,218.51,107.85,69.36,33.88,172.91,37.79,219.08,106.46s10.72,166,15.92,243.06c5.37,79.46,52.38,171.5,17.43,243.05-33.88,69.36-134,89.09-202.68,135.26S610.27,981,533.26,986.17c-79.46,5.37-147-72.9-218.51-107.85C245.39,844.44,141.83,840.53,95.67,771.86Z" transform="translate(-12.74 -12.74)"/></g><g class="cls-10"><path class="cls-12" d="M21.86,406.33c15.91-81.2,109.83-125,160.61-183.13C234.86,163.23,266.69,64.9,342,39c73-25.09,157.77,31.77,239,47.68s181.15-4.76,239.29,46c60,52.39,52.36,155.46,78.25,230.77,25.09,73,95.54,149,79.64,230.19s-109.83,125-160.61,183.13C765.14,836.77,733.31,935.1,658,961c-73,25.09-157.77-31.77-239-47.68s-181.15,4.76-239.29-46c-60-52.39-52.36-155.46-78.25-230.77C76.4,563.52,6,487.53,21.86,406.33Z" transform="translate(-12.74 -12.74)"/></g><g class="cls-10"><path class="cls-13" d="M228.14,95.67c68.66-46.17,166-10.72,243.06-15.92,79.46-5.37,171.5-52.38,243.05-17.43,69.36,33.88,89.09,134,135.26,202.68S981,389.73,986.17,466.74c5.37,79.46-72.9,147-107.85,218.51-33.88,69.36-37.79,172.91-106.46,219.08s-166,10.72-243.06,15.92c-79.46,5.37-171.5,52.38-243.05,17.43-69.36-33.88-89.09-134-135.26-202.68S19,610.27,13.83,533.26c-5.37-79.46,72.9-147,107.85-218.51C155.56,245.39,159.47,141.83,228.14,95.67Z" transform="translate(-12.74 -12.74)"/></g><g class="cls-10"><path class="cls-14" d="M593.67,21.86c81.2,15.91,125,109.83,183.13,160.61C836.77,234.86,935.1,266.69,961,342c25.09,73-31.77,157.77-47.68,239s4.76,181.15-46,239.29c-52.39,60-155.46,52.36-230.77,78.25-73,25.09-149,95.54-230.19,79.64s-125-109.83-183.13-160.61C163.23,765.14,64.9,733.31,39,658,13.93,585,70.78,500.23,86.69,419s-4.76-181.15,46-239.29c52.39-60,155.46-52.36,230.77-78.25C436.48,76.4,512.47,6,593.67,21.86Z" transform="translate(-12.74 -12.74)"/></g></g><g id="Sloi_1-3" data-name="Sloi_1"><g class="cls-2"><path class="cls-15" d="M81.73,749.89c-42.44-71-1.84-166.38-2.92-243.56-1.12-79.63-43.15-174-4.43-243.64C111.91,195.24,213,180.88,284,138.45S415.56,13.83,492.74,12.75c79.63-1.12,142.85,80.64,212.44,119.36,67.45,37.53,170.65,47,213.09,118s1.84,166.38,2.92,243.56c1.12,79.63,43.15,174,4.43,243.64C888.09,804.76,787,819.12,716,861.55S584.44,986.17,507.26,987.25c-79.63,1.12-142.85-80.64-212.44-119.36C227.37,830.36,124.17,820.92,81.73,749.89Z" transform="translate(-12.74 -12.74)"/></g><g class="cls-4"><path class="cls-16" d="M27.54,380.94C47.76,300.71,143.88,262,197.69,206.65c55.52-57.1,92.56-153.58,169.14-175.41C441.07,10.08,522.68,71.38,602.92,91.6s181.15,4.91,236.49,58.72c57.1,55.52,44,158,65.82,234.62,21.16,74.23,87.46,153.88,67.24,234.11S856.12,738,802.31,793.35c-55.52,57.1-92.56,153.58-169.14,175.41-74.23,21.16-155.84-40.14-236.08-60.36s-181.15-4.91-236.49-58.72c-57.1-55.52-44-158-65.82-234.62C73.62,540.82,7.32,461.17,27.54,380.94Z" transform="translate(-12.74 -12.74)"/></g><g class="cls-6"><path class="cls-17" d="M250.11,81.73c71-42.44,166.38-1.84,243.56-2.92,79.63-1.12,174-43.15,243.64-4.43C804.76,111.91,819.12,213,861.55,284s124.62,131.57,125.7,208.75c1.12,79.63-80.64,142.85-119.36,212.44-37.53,67.45-47,170.65-118,213.09s-166.38,1.84-243.56,2.92c-79.63,1.12-174,43.15-243.64,4.43C195.24,888.09,180.88,787,138.45,716S13.83,584.44,12.75,507.26c-1.12-79.63,80.64-142.85,119.36-212.44C169.64,227.37,179.08,124.17,250.11,81.73Z" transform="translate(-12.74 -12.74)"/></g><g class="cls-8"><path class="cls-18" d="M619.06,27.54C699.29,47.76,738,143.88,793.35,197.69c57.1,55.52,153.58,92.56,175.41,169.14,21.16,74.23-40.14,155.84-60.36,236.08s-4.91,181.15-58.72,236.49c-55.52,57.1-158,44-234.62,65.82-74.23,21.16-153.88,87.46-234.11,67.24S262,856.12,206.65,802.31c-57.1-55.52-153.58-92.56-175.41-169.14C10.08,558.93,71.38,477.32,91.6,397.08s4.91-181.15,58.72-236.49c55.52-57.1,158-44,234.62-65.82C459.18,73.62,538.83,7.32,619.06,27.54Z" transform="translate(-12.74 -12.74)"/></g></g></g><circle class="cls-1" cx="487.26" cy="487.26" r="373"/></svg>